<svg width="100" height="100" viewBox="0 0 100 100" fill="none" xmlns="http://www.w3.org/2000/svg">
<path d="M36.9687 15.4688C41.9415 15.4672 46.8203 16.8225 51.0798 19.3886C55.3392 21.9547 58.8178 25.6344 61.1406 30.0313C63.9938 28.3632 67.1933 27.3758 70.4903 27.146C73.7873 26.9162 77.0928 27.4502 80.1498 28.7063C83.2068 29.9625 85.9327 31.907 88.1156 34.3885C90.2985 36.87 91.8794 39.8217 92.7354 43.014C93.5914 46.2062 93.6994 49.5528 93.0509 52.7936C92.4025 56.0344 91.0151 59.0818 88.9968 61.6989C86.9784 64.316 84.3835 66.4322 81.4138 67.8828C78.4442 69.3334 75.1799 70.0793 71.875 70.0625L36.8906 70.1563C29.6386 70.1563 22.6836 67.2754 17.5557 62.1474C12.4277 57.0195 9.54687 50.0645 9.54688 42.8125C9.54687 35.5605 12.4277 28.6055 17.5557 23.4776C22.6836 18.3496 29.6386 15.4688 36.8906 15.4688H36.9687Z" fill="url(#paint0_linear_1_77)"/>
<path d="M92.6525 54.3663C95.8454 42.9384 89.1696 31.086 77.7418 27.8932C66.3139 24.7003 54.4615 31.3761 51.2686 42.8039C48.0758 54.2318 54.7516 66.0842 66.1794 69.277C77.6072 72.4699 89.4597 65.7941 92.6525 54.3663Z" fill="url(#paint1_linear_1_77)"/>
<path d="M68.0156 63.2812C69.0435 63.2936 70.0251 63.7106 70.7475 64.4418C71.47 65.173 71.8751 66.1596 71.875 67.1875C71.875 68.2235 71.4635 69.2171 70.7309 69.9496C69.9983 70.6822 69.0048 71.0938 67.9688 71.0938H35.1562C33.913 71.0938 32.7208 71.5876 31.8417 72.4667C30.9626 73.3458 30.4688 74.538 30.4688 75.7813C30.4688 77.0245 30.9626 78.2167 31.8417 79.0958C32.7208 79.9749 33.913 80.4688 35.1562 80.4688H66.0156C66.8444 80.4688 67.6393 80.798 68.2253 81.384C68.8114 81.9701 69.1406 82.7649 69.1406 83.5938V83.7188C69.1406 84.5476 68.8114 85.3424 68.2253 85.9285C67.6393 86.5145 66.8444 86.8438 66.0156 86.8438H63.2812" stroke="#A5A9AA" stroke-width="3" stroke-miterlimit="10" stroke-linecap="round"/>
<path d="M80.4688 83.5938C81.2976 83.5938 82.0924 83.2645 82.6785 82.6785C83.2645 82.0924 83.5938 81.2976 83.5938 80.4688C83.5938 79.6399 83.2645 78.8451 82.6785 78.259C82.0924 77.673 81.2976 77.3438 80.4688 77.3438H74.2188" stroke="#B9C1C6" stroke-width="3" stroke-miterlimit="10" stroke-linecap="round"/>
<defs>
<linearGradient id="paint0_linear_1_77" x1="30.0781" y1="72.4844" x2="63.0313" y2="29.8125" gradientUnits="userSpaceOnUse">
<stop stop-color="#F2F2F2"/>
<stop offset="1" stop-color="#CFCFCF"/>
</linearGradient>
<linearGradient id="paint1_linear_1_77" x1="80.7457" y1="40.9487" x2="55.8424" y2="62.6089" gradientUnits="userSpaceOnUse">
<stop offset="0.02" stop-color="white"/>
<stop offset="1" stop-color="white" stop-opacity="0"/>
</linearGradient>
</defs>
</svg>
