<svg width="100" height="100" viewBox="0 0 100 100" fill="none" xmlns="http://www.w3.org/2000/svg">
<path d="M20.0865 67L18 78.5023H22.1731L20.0865 87L30 75H25.3078L29.4808 67H20.0865Z" fill="#FCFC07"/>
<path d="M42 85C54.113 85 62.4915 77.9095 69 71" stroke="#A5A9AA" stroke-width="3" stroke-linecap="round"/>
<path d="M33.5 61C49 67.5 67.5311 64.4114 78 51" stroke="#A5A9AA" stroke-width="3" stroke-linecap="round"/>
<path d="M18 24.8144C34.9944 11.7228 82 9.43709 82 32.2694C82 56.0889 20.7119 60.8971 20.7119 44.27C20.7119 28.2691 59.5819 19.5414 73.6836 34.815" stroke="#A5A9AA" stroke-width="3" stroke-linecap="round"/>
<path d="M35.7175 48.0885C39.8757 41.5427 57.774 40.088 65.0057 44.9974" stroke="#A5A9AA" stroke-width="3" stroke-linecap="round"/>
<path d="M51.9435 73.0909C50 75 49.5 75.5 47 77" stroke="#A5A9AA" stroke-width="3" stroke-linecap="round"/>
</svg>
